<svg width="252" height="45" viewBox="0 0 252 45" fill="none" xmlns="http://www.w3.org/2000/svg">
<path d="M0.12207 2.2236H10.2296V16.8975L25.0063 2.2236H39.1669L19.773 21.5667L38.8592 40.7043H24.3902L12.6412 28.8526L10.2296 31.3151V40.7043H0.12207V2.2236Z" fill="white"/>
<path d="M64.873 27.1587L60.974 18.6933L57.023 27.1587H64.873ZM58.6651 2.22311H63.1801L81.2911 40.7039H71.1837L68.8239 35.6761H53.072L50.7637 40.7039H40.707L58.6651 2.22311Z" fill="white"/>
<path d="M86.6714 2.2236H96.7789V30.5455H110.632V40.7043H86.6714V2.2236Z" fill="white"/>
<path d="M118.336 2.2236H128.444V40.7043H118.336V2.2236Z" fill="white"/>
<path d="M154.047 32.3927C155.894 32.3927 157.381 30.9043 157.381 29.0572C157.381 27.2108 155.791 25.7223 154.047 25.7223H147.274V32.3927H154.047ZM152.148 17.2569C153.995 17.2569 155.483 15.769 155.483 13.922C155.483 12.0744 153.995 10.5871 152.148 10.5871H147.274V17.2569H152.148ZM137.167 2.22325H154.149C160.306 2.22325 165.539 7.50854 165.539 13.6651C165.539 16.2823 164.565 18.6934 163.077 20.5918C165.693 22.6952 167.438 25.9279 167.438 29.417C167.438 35.5221 162.256 40.7046 156.151 40.7046H137.167V2.22325Z" fill="white"/>
<path d="M190.475 21.772C193.554 21.772 196.016 19.3603 196.016 16.2823C196.016 13.2037 193.554 10.7407 190.475 10.7407H184.216V21.772H190.475ZM174.108 2.22325H190.321C198.12 2.22325 204.482 8.58591 204.482 16.3845C204.482 20.489 202.686 24.1836 199.916 26.7489L208.074 40.7046H196.427L190.475 30.4943H184.216V40.7046H174.108V2.22325Z" fill="white"/>
<path d="M236.306 11.7291C236.306 5.32151 231.091 0.100014 224.677 0.100014C218.262 0.100014 213.047 5.32151 213.047 11.7291C213.047 16.3652 215.757 19.6818 218.982 22.5046L224.677 27.1549C226.751 28.8554 229.073 31.0007 229.073 33.273C229.073 34.5713 228.494 35.778 227.541 36.5967L231.183 42.905C234.379 40.7597 236.306 37.1891 236.306 33.273C236.306 28.6369 233.596 25.3203 230.378 22.5046L224.677 17.8472C222.601 16.1467 220.28 14.0014 220.28 11.7291C220.28 9.30851 222.256 7.33981 224.677 7.33981C227.096 7.33981 229.073 9.30851 229.073 11.7291C229.073 13.5353 227.619 15.25 225.939 16.7604L231.599 21.3823C234.019 19.0397 236.306 15.9346 236.306 11.7291ZM223.413 28.2417L217.761 23.6263C215.333 25.9623 213.047 29.0669 213.047 33.273C213.047 37.1891 214.981 40.7597 218.177 42.8979L221.811 36.5967C220.858 35.778 220.28 34.5713 220.28 33.273C220.28 31.4591 221.734 29.7515 223.413 28.2417Z" fill="white"/>
<path d="M219.319 43.7345L220.948 44.2868C222.148 44.6938 223.402 44.8999 224.676 44.8999C225.952 44.8999 227.207 44.6932 228.407 44.2856L230.035 43.7333L224.677 34.4534L219.319 43.7345Z" fill="#57C54D"/>
<path d="M241.011 35.859V35.2925H244.966V35.859H243.308V40.5659H242.669V35.859H241.011Z" fill="white"/>
<path d="M245.952 35.2925H246.714L248.506 39.6698H248.568L250.36 35.2925H251.122V40.5659H250.525V36.5593H250.473L248.825 40.5659H248.249L246.601 36.5593H246.549V40.5659H245.952V35.2925Z" fill="white"/>
</svg>
